<svg fill="none" height="21" viewBox="0 0 20 21" width="20" xmlns="http://www.w3.org/2000/svg"><path d="M17.944 6.408c.013.176.013.353.013.53 0 5.381-4.125 11.582-11.663 11.582-2.322 0-4.48-.668-6.294-1.827.33.037.647.05.99.05 1.916 0 3.68-.643 5.089-1.74a4.103 4.103 0 01-3.833-2.823c.254.038.508.063.774.063.368 0 .736-.05 1.079-.138A4.079 4.079 0 01.812 8.109v-.05a4.15 4.15 0 001.853.517 4.06 4.06 0 01-1.27-5.445 11.678 11.678 0 008.453 4.26 4.565 4.565 0 01-.102-.933c0-2.243 1.828-4.07 4.1-4.07a4.1 4.1 0 012.994 1.285 8.105 8.105 0 002.602-.983 4.065 4.065 0 01-1.803 2.243 8.262 8.262 0 002.36-.63 8.779 8.779 0 01-2.055 2.105z" fill="#fff"/></svg>