<svg fill="none" height="18" viewBox="0 0 17 18" width="17" xmlns="http://www.w3.org/2000/svg"><path d="M13.813 7.041a6.81 6.81 0 01-1.329 4.047l4.204 4.178c.415.412.415 1.081 0 1.493s-1.09.413-1.504 0l-4.204-4.178a6.899 6.899 0 01-4.074 1.32C3.091 13.9 0 10.83 0 7.04S3.091.182 6.906.182c3.815 0 6.907 3.07 6.907 6.86zM6.905 11.79a4.809 4.809 0 003.381-1.39 4.745 4.745 0 001.4-3.359 4.72 4.72 0 00-1.4-3.357 4.784 4.784 0 00-3.38-1.391 4.81 4.81 0 00-3.382 1.39 4.747 4.747 0 00-1.4 3.358 4.72 4.72 0 001.4 3.358 4.784 4.784 0 003.381 1.391z" fill="#fff"/></svg>