<svg fill="none" height="15" viewBox="0 0 24 15" width="24" xmlns="http://www.w3.org/2000/svg"><path d="M10.207.429L8.291 2.332a3.928 3.928 0 00-1.556.838l-.998.882a2.106 2.106 0 01-1.395.526H3.6v4.767a3.01 3.01 0 012.036.871l1.335 1.326.263.26 1.012 1.006a.605.605 0 00.848 0 .562.562 0 00.138-.216.9.9 0 011.482-.327l.405.394c.435.433 1.14.433 1.571 0 .202-.2.311-.458.322-.722a.884.884 0 01.51-.76.906.906 0 01.915.078.905.905 0 001.16-.096.886.886 0 000-1.263l-2.843-2.823-1.343 1.229a2.722 2.722 0 01-3.637.033 2.677 2.677 0 01-.06-3.966l2.628-2.466a5.56 5.56 0 017.47-.111l1.13.998H23.4a.6.6 0 01.6.596v7.747c0 .659-.536 1.191-1.2 1.191h-1.2c-.443 0-.833-.238-1.039-.596h-3.183a2.72 2.72 0 01-2.869 1.445 2.846 2.846 0 01-.548.753 2.934 2.934 0 01-3.765.301 2.41 2.41 0 01-3.225-.152l-1.008-1.006-.263-.26-1.335-1.326a1.211 1.211 0 00-.765-.347c0 .656-.54 1.188-1.2 1.188H1.2c-.664 0-1.2-.532-1.2-1.191V3.386a.6.6 0 01.6-.596h3.743a.292.292 0 00.198-.075l.994-.879A5.74 5.74 0 019.326.406h.387c.165 0 .333.008.495.023zM20.4 9.94V4.578h-1.8a.893.893 0 01-.596-.228L16.62 3.13a3.751 3.751 0 00-5.04.074L8.951 5.67A.899.899 0 008.97 7a.913.913 0 001.219-.012l2.696-2.473c.364-.335.934-.313 1.271.052s.315.928-.052 1.263l-.03.03 2.79 2.77c.375.373.618.831.727 1.308H20.4zm-18 .596a.602.602 0 00-1.2 0 .602.602 0 001.2 0zm19.8.595a.602.602 0 00.6-.595.594.594 0 00-.6-.596.602.602 0 00-.6.596.602.602 0 00.6.596z" fill="#fff"/></svg>