<svg fill="none" height="69" viewBox="0 0 86 69" width="86" xmlns="http://www.w3.org/2000/svg"><path d="M8.6 12.9c0-4.744 3.857-8.6 8.6-8.6h51.6c4.743 0 8.6 3.856 8.6 8.6v34.4h-8.6V12.9H17.2v34.4H8.6zM0 54.18a2.58 2.58 0 012.58-2.58h80.84A2.58 2.58 0 0186 54.18c0 5.697-4.622 10.32-10.32 10.32H10.32C4.623 64.5 0 59.877 0 54.18zm37.76-26.096l-4.166 4.166 4.165 4.166c1.263 1.263 1.263 3.305 0 4.555s-3.305 1.263-4.555 0l-6.45-6.45a3.212 3.212 0 010-4.555l6.45-6.45a3.212 3.212 0 014.555 0c1.25 1.263 1.263 3.305 0 4.555zm15.05-4.568l6.45 6.45a3.212 3.212 0 010 4.555l-6.45 6.45a3.212 3.212 0 01-4.556 0c-1.25-1.263-1.263-3.306 0-4.555l4.166-4.166-4.166-4.166a3.212 3.212 0 010-4.555c1.263-1.25 3.306-1.263 4.555 0z" fill="#7f7f7f"/></svg>