<svg fill="none" height="57" viewBox="0 0 55 57" width="55" xmlns="http://www.w3.org/2000/svg"><g clip-path="url(#a)"><path d="M37.813 35.56C47.309 35.56 55 27.604 55 17.78c0-1.7-.236-3.345-.666-4.912-.333-1.2-1.762-1.467-2.61-.589l-8.25 8.535a1.696 1.696 0 01-1.214.522h-6.166c-.946 0-1.719-.8-1.719-1.778V13.18c0-.467.183-.923.505-1.256l8.25-8.535c.848-.878.58-2.356-.57-2.7A16.822 16.822 0 0037.813 0c-9.496 0-17.187 7.957-17.187 17.78 0 2.123.365 4.167 1.02 6.056L2.138 44.017A7.688 7.688 0 000 49.351c0 4.167 3.266 7.546 7.294 7.546 1.934 0 3.792-.8 5.156-2.212l19.508-20.18a16.56 16.56 0 005.854 1.055zm-29.22 9.78c.685 0 1.34.28 1.824.78.483.5.755 1.18.755 1.886 0 .708-.272 1.386-.755 1.886-.484.5-1.14.781-1.823.781s-1.34-.28-1.823-.78a2.714 2.714 0 01-.755-1.887c0-.707.271-1.385.755-1.885s1.139-.782 1.823-.782z" fill="gray"/></g></svg>