<svg fill="none" height="61" viewBox="0 0 76 61" width="76" xmlns="http://www.w3.org/2000/svg"><g clip-path="url(#a)"><path d="M10.473 36.706a5.7 5.7 0 00-.89-6.627c-2.53-2.66-3.884-5.854-3.884-9.179 0-7.54 7.577-15.2 19-15.2 11.424 0 19 7.66 19 15.2s-7.576 15.2-19 15.2a23.81 23.81 0 01-4.488-.428 5.693 5.693 0 00-3.646.5c-.487.249-.986.486-1.496.712-1.9.855-3.907 1.603-5.926 2.137.333-.546.641-1.08.938-1.615.13-.225.262-.463.38-.7zM0 20.9c0 4.964 2.043 9.512 5.451 13.098-.107.202-.226.416-.332.606-1.225 2.185-2.65 4.334-4.349 6.186a2.856 2.856 0 00-.546 3.075A2.863 2.863 0 002.85 45.6c5.107 0 10.272-1.58 14.571-3.527a55.45 55.45 0 001.686-.807c1.793.356 3.67.534 5.593.534 13.645 0 24.7-9.357 24.7-20.9S38.344 0 24.7 0C11.055 0 0 9.358 0 20.9zM51.3 57c1.924 0 3.789-.19 5.594-.534.546.273 1.116.546 1.686.807 4.299 1.948 9.464 3.527 14.57 3.527 1.14 0 2.162-.677 2.613-1.722a2.826 2.826 0 00-.546-3.076c-1.687-1.852-3.112-4.001-4.347-6.186-.106-.202-.225-.404-.332-.606C73.958 45.612 76 41.064 76 36.1c0-11.21-10.438-20.366-23.536-20.876.487 1.805.736 3.705.736 5.676v.071c10.355.796 17.1 8.016 17.1 15.129 0 3.325-1.353 6.52-3.883 9.167a5.702 5.702 0 00-.89 6.627c.13.237.26.475.38.7.297.535.617 1.07.938 1.615a37.532 37.532 0 01-5.926-2.137c-.51-.226-1.01-.463-1.496-.713a5.693 5.693 0 00-3.646-.498 23.025 23.025 0 01-4.488.427c-7.327 0-13.063-3.147-16.245-7.398a32.767 32.767 0 01-5.938 1.401C33.131 52.226 41.562 57 51.3 57z" fill="#7f7f7f"/></g></svg>