<svg fill="none" height="66" viewBox="0 0 49 66" width="49" xmlns="http://www.w3.org/2000/svg"><g clip-path="url(#a)"><path d="M8.167 0C3.662 0 0 3.7 0 8.25v49.5C0 62.3 3.662 66 8.167 66h32.666C45.338 66 49 62.3 49 57.75V8.25C49 3.7 45.338 0 40.833 0zm4.083 8.25h24.5c2.259 0 4.083 1.843 4.083 4.125V16.5c0 2.282-1.824 4.125-4.083 4.125h-24.5c-2.259 0-4.083-1.843-4.083-4.125v-4.125c0-2.282 1.824-4.125 4.083-4.125zm4.083 20.625c0 1.094-.43 2.143-1.196 2.917-.765.773-1.804 1.208-2.887 1.208s-2.122-.435-2.887-1.208c-.766-.774-1.196-1.823-1.196-2.917s.43-2.143 1.196-2.917c.765-.773 1.804-1.208 2.887-1.208s2.122.435 2.887 1.208a4.147 4.147 0 011.196 2.917zm-4.083 16.5a4.062 4.062 0 01-2.887-1.208c-.766-.774-1.196-1.823-1.196-2.917s.43-2.143 1.196-2.917c.765-.773 1.804-1.208 2.887-1.208s2.122.435 2.887 1.208c.766.774 1.196 1.823 1.196 2.917s-.43 2.143-1.196 2.917a4.063 4.063 0 01-2.887 1.208zm-4.083 8.25c0-2.282 1.824-4.125 4.083-4.125H24.5c2.259 0 4.083 1.843 4.083 4.125S26.76 57.75 24.5 57.75H12.25c-2.259 0-4.083-1.843-4.083-4.125zM24.5 33a4.063 4.063 0 01-2.887-1.208c-.766-.774-1.196-1.823-1.196-2.917s.43-2.143 1.196-2.917c.765-.773 1.804-1.208 2.887-1.208s2.122.435 2.887 1.208c.766.774 1.196 1.823 1.196 2.917s-.43 2.143-1.196 2.917A4.063 4.063 0 0124.5 33zm4.083 8.25c0 1.094-.43 2.143-1.196 2.917-.765.773-1.804 1.208-2.887 1.208s-2.122-.435-2.887-1.208c-.766-.774-1.196-1.823-1.196-2.917s.43-2.143 1.196-2.917c.765-.773 1.804-1.208 2.887-1.208s2.122.435 2.887 1.208a4.147 4.147 0 011.196 2.917zM36.75 33a4.063 4.063 0 01-2.887-1.208c-.766-.774-1.196-1.823-1.196-2.917s.43-2.143 1.196-2.917c.765-.773 1.804-1.208 2.887-1.208s2.122.435 2.887 1.208c.766.774 1.196 1.823 1.196 2.917s-.43 2.143-1.196 2.917A4.063 4.063 0 0136.75 33zm4.083 8.25c0 1.094-.43 2.143-1.196 2.917-.765.773-1.804 1.208-2.887 1.208s-2.122-.435-2.887-1.208c-.766-.774-1.196-1.823-1.196-2.917s.43-2.143 1.196-2.917c.765-.773 1.804-1.208 2.887-1.208s2.122.435 2.887 1.208a4.147 4.147 0 011.196 2.917zm-4.083 16.5a4.063 4.063 0 01-2.887-1.208c-.766-.774-1.196-1.823-1.196-2.917s.43-2.143 1.196-2.917c.765-.773 1.804-1.208 2.887-1.208s2.122.435 2.887 1.208c.766.774 1.196 1.823 1.196 2.917s-.43 2.143-1.196 2.917a4.063 4.063 0 01-2.887 1.208z" fill="#7f7f7f"/></g></svg>